<svg xmlns="http://www.w3.org/2000/svg" style="display: none;">
 <symbol id="mail-icon" viewBox="0 -960 960 960" fill="currentColor">
  <path d="M160-160q-33 0-56.5-23.5T80-240v-480q0-33 23.5-56.5T160-800h640q33 0 56.5 23.5T880-720v480q0 33-23.5 56.5T800-160H160Zm320-280L160-640v400h640v-400L480-440Zm0-80 320-200H160l320 200ZM160-640v-80 480-400Z"/>
  </symbol>
  <symbol id="github-icon" viewBox="0 0 32 32" fill="currentColor">
    <path d="M16,2.345c7.735,0,14,6.265,14,14-.002,6.015-3.839,11.359-9.537,13.282-.7,.14-.963-.298-.963-.665,0-.473,.018-1.978,.018-3.85,0-1.312-.437-2.152-.945-2.59,3.115-.35,6.388-1.54,6.388-6.912,0-1.54-.543-2.783-1.435-3.762,.14-.35,.63-1.785-.14-3.71,0,0-1.173-.385-3.85,1.435-1.12-.315-2.31-.472-3.5-.472s-2.38,.157-3.5,.472c-2.677-1.802-3.85-1.435-3.85-1.435-.77,1.925-.28,3.36-.14,3.71-.892,.98-1.435,2.24-1.435,3.762,0,5.355,3.255,6.563,6.37,6.913-.403,.35-.77,.963-.893,1.872-.805,.368-2.818,.963-4.077-1.155-.263-.42-1.05-1.452-2.152-1.435-1.173,.018-.472,.665,.017,.927,.595,.332,1.277,1.575,1.435,1.978,.28,.787,1.19,2.293,4.707,1.645,0,1.173,.018,2.275,.018,2.607,0,.368-.263,.787-.963,.665-5.719-1.904-9.576-7.255-9.573-13.283,0-7.735,6.265-14,14-14Z" />
  </symbol>
  <symbol id="download-icon" viewBox="0 -960 960 960" fill="currentColor">
  <path d="M480-320 280-520l56-58 104 104v-326h80v326l104-104 56 58-200 200ZM240-160q-33 0-56.5-23.5T160-240v-120h80v120h480v-120h80v120q0 33-23.5 56.5T720-160H240Z"/>
  </symbol>
 <symbol id="plus-icon" viewBox="0 -960 960 960" fill="currentColor">
 <path d="M440-440H200v-80h240v-240h80v240h240v80H520v240h-80v-240Z"/>
 </symbol>
 <symbol id="spotify-icon" viewBox="0 0 50 50">
    <path d="M25.009,1.982C12.322,1.982,2,12.304,2,24.991S12.322,48,25.009,48s23.009-10.321,23.009-23.009S37.696,1.982,25.009,1.982z M34.748,35.333c-0.289,0.434-0.765,0.668-1.25,0.668c-0.286,0-0.575-0.081-0.831-0.252C30.194,34.1,26,33,22.5,33.001 c-3.714,0.002-6.498,0.914-6.526,0.923c-0.784,0.266-1.635-0.162-1.897-0.948s0.163-1.636,0.949-1.897 c0.132-0.044,3.279-1.075,7.474-1.077C26,30,30.868,30.944,34.332,33.253C35.022,33.713,35.208,34.644,34.748,35.333z M37.74,29.193 c-0.325,0.522-0.886,0.809-1.459,0.809c-0.31,0-0.624-0.083-0.906-0.26c-4.484-2.794-9.092-3.385-13.062-3.35 c-4.482,0.04-8.066,0.895-8.127,0.913c-0.907,0.258-1.861-0.272-2.12-1.183c-0.259-0.913,0.272-1.862,1.184-2.12 c0.277-0.079,3.854-0.959,8.751-1c4.465-0.037,10.029,0.61,15.191,3.826C37.995,27.328,38.242,28.388,37.74,29.193z M40.725,22.013 C40.352,22.647,39.684,23,38.998,23c-0.344,0-0.692-0.089-1.011-0.275c-5.226-3.068-11.58-3.719-15.99-3.725 c-0.021,0-0.042,0-0.063,0c-5.333,0-9.44,0.938-9.481,0.948c-1.078,0.247-2.151-0.419-2.401-1.495 c-0.25-1.075,0.417-2.149,1.492-2.4C11.729,16.01,16.117,15,21.934,15c0.023,0,0.046,0,0.069,0 c4.905,0.007,12.011,0.753,18.01,4.275C40.965,19.835,41.284,21.061,40.725,22.013z"></path>
 </symbol>
 <symbol id="database-icon" viewBox="0 -960 960 960">
<path d="M480-120q-151 0-255.5-46.5T120-280v-400q0-66 105.5-113T480-840q149 0 254.5 47T840-680v400q0 67-104.5 113.5T480-120Zm0-479q89 0 179-25.5T760-679q-11-29-100.5-55T480-760q-91 0-178.5 25.5T200-679q14 30 101.5 55T480-599Zm0 199q42 0 81-4t74.5-11.5q35.5-7.5 67-18.5t57.5-25v-120q-26 14-57.5 25t-67 18.5Q600-528 561-524t-81 4q-42 0-82-4t-75.5-11.5Q287-543 256-554t-56-25v120q25 14 56 25t66.5 18.5Q358-408 398-404t82 4Zm0 200q46 0 93.5-7t87.5-18.5q40-11.5 67-26t32-29.5v-98q-26 14-57.5 25t-67 18.5Q600-328 561-324t-81 4q-42 0-82-4t-75.5-11.5Q287-343 256-354t-56-25v99q5 15 31.5 29t66.5 25.5q40 11.5 88 18.5t94 7Z"/>
 </symbol>
 <symbol id="trashcan-icon" viewBox="0 -960 960 960">
  <path d="M280-120q-33 0-56.5-23.5T200-200v-520h-40v-80h200v-40h240v40h200v80h-40v520q0 33-23.5 56.5T680-120H280Zm400-600H280v520h400v-520ZM360-280h80v-360h-80v360Zm160 0h80v-360h-80v360ZM280-720v520-520Z"/>
 </symbol>
 <symbol id="close-icon" viewBox="0 -960 960 960">
<path d="m256-200-56-56 224-224-224-224 56-56 224 224 224-224 56 56-224 224 224 224-56 56-224-224-224 224Z"/>
 </symbol>
 <symbol id="home-icon" viewBox="0 -960 960 960">
 <path d="M240-200h120v-240h240v240h120v-360L480-740 240-560v360Zm-80 80v-480l320-240 320 240v480H520v-240h-80v240H160Zm320-350Z"/>
 </symbol>
 <symbol id="plus-circle-icon" viewBox="0 -960 960 960">
<path d="M440-280h80v-160h160v-80H520v-160h-80v160H280v80h160v160Zm40 200q-83 0-156-31.5T197-197q-54-54-85.5-127T80-480q0-83 31.5-156T197-763q54-54 127-85.5T480-880q83 0 156 31.5T763-763q54 54 85.5 127T880-480q0 83-31.5 156T763-197q-54 54-127 85.5T480-80Zm0-80q134 0 227-93t93-227q0-134-93-227t-227-93q-134 0-227 93t-93 227q0 134 93 227t227 93Zm0-320Z"/>
 </symbol>
   <symbol id="person-icon" viewBox="0 -960 960 960" fill="currentColor">
<path d="M480-480q-66 0-113-47t-47-113q0-66 47-113t113-47q66 0 113 47t47 113q0 66-47 113t-113 47ZM160-160v-112q0-34 17.5-62.5T224-378q62-31 126-46.5T480-440q66 0 130 15.5T736-378q29 15 46.5 43.5T800-272v112H160Zm80-80h480v-32q0-11-5.5-20T700-306q-54-27-109-40.5T480-360q-56 0-111 13.5T260-306q-9 5-14.5 14t-5.5 20v32Zm240-320q33 0 56.5-23.5T560-640q0-33-23.5-56.5T480-720q-33 0-56.5 23.5T400-640q0 33 23.5 56.5T480-560Zm0-80Zm0 400Z"/>  </symbol>
  <symbol id="weight-icon" viewBox="0 -960 960 960" fill="currentColor">
<path d="M240-200h480l-57-400H297l-57 400Zm240-480q17 0 28.5-11.5T520-720q0-17-11.5-28.5T480-760q-17 0-28.5 11.5T440-720q0 17 11.5 28.5T480-680Zm113 0h70q30 0 52 20t27 49l57 400q5 36-18.5 63.5T720-120H240q-37 0-60.5-27.5T161-211l57-400q5-29 27-49t52-20h70q-3-10-5-19.5t-2-20.5q0-50 35-85t85-35q50 0 85 35t35 85q0 11-2 20.5t-5 19.5ZM240-200h480-480Z"/>  </symbol>
  <symbol id="globe-icon" viewBox="0 -960 960 960" fill="currentColor">
<path d="M480-80q-83 0-156-31.5T197-197q-54-54-85.5-127T80-480q0-83 31.5-156T197-763q54-54 127-85.5T480-880q83 0 156 31.5T763-763q54 54 85.5 127T880-480q0 83-31.5 156T763-197q-54 54-127 85.5T480-80Zm0-80q134 0 227-93t93-227q0-7-.5-14.5T799-507q-5 29-27 48t-52 19h-80q-33 0-56.5-23.5T560-520v-40H400v-80q0-33 23.5-56.5T480-720h40q0-23 12.5-40.5T563-789q-20-5-40.5-8t-42.5-3q-134 0-227 93t-93 227h200q66 0 113 47t47 113v40H400v110q20 5 39.5 7.5T480-160Z"/>  </symbol>
  <symbol id="cloud-icon" viewBox="0 -960 960 960" fill="currentColor">
<path d="M260-160q-91 0-155.5-63T40-377q0-78 47-139t123-78q25-92 100-149t170-57q117 0 198.5 81.5T760-520q69 8 114.5 59.5T920-340q0 75-52.5 127.5T740-160H260Zm0-80h480q42 0 71-29t29-71q0-42-29-71t-71-29h-60v-80q0-83-58.5-141.5T480-720q-83 0-141.5 58.5T280-520h-20q-58 0-99 41t-41 99q0 58 41 99t99 41Zm220-240Z"/>  </symbol>
  <symbol id="finance-icon" viewBox="0 -960 960 960" fill="currentColor">
<path d="M560-440q-50 0-85-35t-35-85q0-50 35-85t85-35q50 0 85 35t35 85q0 50-35 85t-85 35ZM280-320q-33 0-56.5-23.5T200-400v-320q0-33 23.5-56.5T280-800h560q33 0 56.5 23.5T920-720v320q0 33-23.5 56.5T840-320H280Zm80-80h400q0-33 23.5-56.5T840-480v-160q-33 0-56.5-23.5T760-720H360q0 33-23.5 56.5T280-640v160q33 0 56.5 23.5T360-400Zm440 240H120q-33 0-56.5-23.5T40-240v-440h80v440h680v80ZM280-400v-320 320Z"/>  </symbol>
  <symbol id="bar-chart-icon" viewBox="0 -960 960 960" fill="currentColor">
<path d="M640-160v-280h160v280H640Zm-240 0v-640h160v640H400Zm-240 0v-440h160v440H160Z"/>  </symbol>
  <symbol id="internet-globe-icon" viewBox="0 -960 960 960" fill="currentColor">
<path d="M480-80q-82 0-155-31.5t-127.5-86Q143-252 111.5-325T80-480q0-83 31.5-155.5t86-127Q252-817 325-848.5T480-880q83 0 155.5 31.5t127 86q54.5 54.5 86 127T880-480q0 82-31.5 155t-86 127.5q-54.5 54.5-127 86T480-80Zm0-82q26-36 45-75t31-83H404q12 44 31 83t45 75Zm-104-16q-18-33-31.5-68.5T322-320H204q29 50 72.5 87t99.5 55Zm208 0q56-18 99.5-55t72.5-87H638q-9 38-22.5 73.5T584-178ZM170-400h136q-3-20-4.5-39.5T300-480q0-21 1.5-40.5T306-560H170q-5 20-7.5 39.5T160-480q0 21 2.5 40.5T170-400Zm216 0h188q3-20 4.5-39.5T580-480q0-21-1.5-40.5T574-560H386q-3 20-4.5 39.5T380-480q0 21 1.5 40.5T386-400Zm268 0h136q5-20 7.5-39.5T800-480q0-21-2.5-40.5T790-560H654q3 20 4.5 39.5T660-480q0 21-1.5 40.5T654-400Zm-16-240h118q-29-50-72.5-87T584-782q18 33 31.5 68.5T638-640Zm-234 0h152q-12-44-31-83t-45-75q-26 36-45 75t-31 83Zm-200 0h118q9-38 22.5-73.5T376-782q-56 18-99.5 55T204-640Z"/>  </symbol>
    <symbol id="heart-icon" viewBox="0 -960 960 960" fill="currentColor">
<path d="m480-120-58-52q-101-91-167-157T150-447.5Q111-500 95.5-544T80-634q0-94 63-157t157-63q52 0 99 22t81 62q34-40 81-62t99-22q94 0 157 63t63 157q0 46-15.5 90T810-447.5Q771-395 705-329T538-172l-58 52Zm0-108q96-86 158-147.5t98-107q36-45.5 50-81t14-70.5q0-60-40-100t-100-40q-47 0-87 26.5T518-680h-76q-15-41-55-67.5T300-774q-60 0-100 40t-40 100q0 35 14 70.5t50 81q36 45.5 98 107T480-228Zm0-273Z"/>  </symbol>
  <symbol id="star-icon" viewBox="0 -960 960 960" fill="currentColor">
<path d="m354-287 126-76 126 77-33-144 111-96-146-13-58-136-58 135-146 13 111 97-33 143ZM233-120l65-281L80-590l288-25 112-265 112 265 288 25-218 189 65 281-247-149-247 149Zm247-350Z"/>  </symbol>
  <symbol id="controller-icon" viewBox="0 -960 960 960" fill="currentColor">
<path d="M182-200q-51 0-79-35.5T82-322l42-300q9-60 53.5-99T282-760h396q60 0 104.5 39t53.5 99l42 300q7 51-21 86.5T778-200q-21 0-39-7.5T706-230l-90-90H344l-90 90q-15 15-33 22.5t-39 7.5Zm16-86 114-114h336l114 114q2 2 16 6 11 0 17.5-6.5T800-304l-44-308q-4-29-26-48.5T678-680H282q-30 0-52 19.5T204-612l-44 308q-2 11 4.5 17.5T182-280q2 0 16-6Zm482-154q17 0 28.5-11.5T720-480q0-17-11.5-28.5T680-520q-17 0-28.5 11.5T640-480q0 17 11.5 28.5T680-440Zm-80-120q17 0 28.5-11.5T640-600q0-17-11.5-28.5T600-640q-17 0-28.5 11.5T560-600q0 17 11.5 28.5T600-560ZM310-440h60v-70h70v-60h-70v-70h-60v70h-70v60h70v70Zm170-40Z"/>  </symbol>
  <symbol id="speed-icon" viewBox="0 -960 960 960" fill="currentColor">
<path d="M418-340q24 24 62 23.5t56-27.5l224-336-336 224q-27 18-28.5 55t22.5 61Zm62-460q59 0 113.5 16.5T696-734l-76 48q-33-17-68.5-25.5T480-720q-133 0-226.5 93.5T160-400q0 42 11.5 83t32.5 77h552q23-38 33.5-79t10.5-85q0-36-8.5-70T766-540l48-76q30 47 47.5 100T880-406q1 57-13 109t-41 99q-11 18-30 28t-40 10H204q-21 0-40-10t-30-28q-26-45-40-95.5T80-400q0-83 31.5-155.5t86-127Q252-737 325-768.5T480-800Zm7 313Z"/>  </symbol>
  <symbol id="bolt-icon" viewBox="0 -960 960 960" fill="currentColor">
<path d="m422-232 207-248H469l29-227-185 267h139l-30 208ZM320-80l40-280H160l360-520h80l-40 320h240L400-80h-80Zm151-390Z"/>  </symbol>
</svg>
