<svg xmlns="http://www.w3.org/2000/svg" style="display: none;">
 <symbol id="mail-icon" viewBox="0 -960 960 960" fill="currentColor">
  <path d="M160-160q-33 0-56.5-23.5T80-240v-480q0-33 23.5-56.5T160-800h640q33 0 56.5 23.5T880-720v480q0 33-23.5 56.5T800-160H160Zm320-280L160-640v400h640v-400L480-440Zm0-80 320-200H160l320 200ZM160-640v-80 480-400Z"/>
  </symbol>
  <symbol id="github-icon" viewBox="0 0 32 32" fill="currentColor">
    <path d="M16,2.345c7.735,0,14,6.265,14,14-.002,6.015-3.839,11.359-9.537,13.282-.7,.14-.963-.298-.963-.665,0-.473,.018-1.978,.018-3.85,0-1.312-.437-2.152-.945-2.59,3.115-.35,6.388-1.54,6.388-6.912,0-1.54-.543-2.783-1.435-3.762,.14-.35,.63-1.785-.14-3.71,0,0-1.173-.385-3.85,1.435-1.12-.315-2.31-.472-3.5-.472s-2.38,.157-3.5,.472c-2.677-1.802-3.85-1.435-3.85-1.435-.77,1.925-.28,3.36-.14,3.71-.892,.98-1.435,2.24-1.435,3.762,0,5.355,3.255,6.563,6.37,6.913-.403,.35-.77,.963-.893,1.872-.805,.368-2.818,.963-4.077-1.155-.263-.42-1.05-1.452-2.152-1.435-1.173,.018-.472,.665,.017,.927,.595,.332,1.277,1.575,1.435,1.978,.28,.787,1.19,2.293,4.707,1.645,0,1.173,.018,2.275,.018,2.607,0,.368-.263,.787-.963,.665-5.719-1.904-9.576-7.255-9.573-13.283,0-7.735,6.265-14,14-14Z" />
  </symbol>
  <symbol id="download-icon" viewBox="0 -960 960 960" fill="currentColor">
  <path d="M480-320 280-520l56-58 104 104v-326h80v326l104-104 56 58-200 200ZM240-160q-33 0-56.5-23.5T160-240v-120h80v120h480v-120h80v120q0 33-23.5 56.5T720-160H240Z"/>
  </symbol>
 <symbol id="plus-icon" viewBox="0 -960 960 960" fill="currentColor">
 <path d="M440-440H200v-80h240v-240h80v240h240v80H520v240h-80v-240Z"/>
 </symbol>
 <symbol id="spotify-icon" viewBox="0 0 50 50">
    <path d="M25.009,1.982C12.322,1.982,2,12.304,2,24.991S12.322,48,25.009,48s23.009-10.321,23.009-23.009S37.696,1.982,25.009,1.982z M34.748,35.333c-0.289,0.434-0.765,0.668-1.25,0.668c-0.286,0-0.575-0.081-0.831-0.252C30.194,34.1,26,33,22.5,33.001 c-3.714,0.002-6.498,0.914-6.526,0.923c-0.784,0.266-1.635-0.162-1.897-0.948s0.163-1.636,0.949-1.897 c0.132-0.044,3.279-1.075,7.474-1.077C26,30,30.868,30.944,34.332,33.253C35.022,33.713,35.208,34.644,34.748,35.333z M37.74,29.193 c-0.325,0.522-0.886,0.809-1.459,0.809c-0.31,0-0.624-0.083-0.906-0.26c-4.484-2.794-9.092-3.385-13.062-3.35 c-4.482,0.04-8.066,0.895-8.127,0.913c-0.907,0.258-1.861-0.272-2.12-1.183c-0.259-0.913,0.272-1.862,1.184-2.12 c0.277-0.079,3.854-0.959,8.751-1c4.465-0.037,10.029,0.61,15.191,3.826C37.995,27.328,38.242,28.388,37.74,29.193z M40.725,22.013 C40.352,22.647,39.684,23,38.998,23c-0.344,0-0.692-0.089-1.011-0.275c-5.226-3.068-11.58-3.719-15.99-3.725 c-0.021,0-0.042,0-0.063,0c-5.333,0-9.44,0.938-9.481,0.948c-1.078,0.247-2.151-0.419-2.401-1.495 c-0.25-1.075,0.417-2.149,1.492-2.4C11.729,16.01,16.117,15,21.934,15c0.023,0,0.046,0,0.069,0 c4.905,0.007,12.011,0.753,18.01,4.275C40.965,19.835,41.284,21.061,40.725,22.013z"></path>
 </symbol>
 <symbol id="database-icon" viewBox="0 -960 960 960">
<path d="M480-120q-151 0-255.5-46.5T120-280v-400q0-66 105.5-113T480-840q149 0 254.5 47T840-680v400q0 67-104.5 113.5T480-120Zm0-479q89 0 179-25.5T760-679q-11-29-100.5-55T480-760q-91 0-178.5 25.5T200-679q14 30 101.5 55T480-599Zm0 199q42 0 81-4t74.5-11.5q35.5-7.5 67-18.5t57.5-25v-120q-26 14-57.5 25t-67 18.5Q600-528 561-524t-81 4q-42 0-82-4t-75.5-11.5Q287-543 256-554t-56-25v120q25 14 56 25t66.5 18.5Q358-408 398-404t82 4Zm0 200q46 0 93.5-7t87.5-18.5q40-11.5 67-26t32-29.5v-98q-26 14-57.5 25t-67 18.5Q600-328 561-324t-81 4q-42 0-82-4t-75.5-11.5Q287-343 256-354t-56-25v99q5 15 31.5 29t66.5 25.5q40 11.5 88 18.5t94 7Z"/>
 </symbol>
 <symbol id="trashcan-icon" viewBox="0 -960 960 960">
  <path d="M280-120q-33 0-56.5-23.5T200-200v-520h-40v-80h200v-40h240v40h200v80h-40v520q0 33-23.5 56.5T680-120H280Zm400-600H280v520h400v-520ZM360-280h80v-360h-80v360Zm160 0h80v-360h-80v360ZM280-720v520-520Z"/>
 </symbol>
 <symbol id="close-icon" viewBox="0 -960 960 960">
<path d="m256-200-56-56 224-224-224-224 56-56 224 224 224-224 56 56-224 224 224 224-56 56-224-224-224 224Z"/>
 </symbol>
</svg>
